<svg width="180" height="180" viewBox="0 0 180 180" fill="none" xmlns="http://www.w3.org/2000/svg" role="img" aria-labelledby="title desc">
  <title id="title">Símbolo Spiritualizee-se</title>
  <desc id="desc">Gato dourado dentro de um círculo com estrela.</desc>
  <circle cx="90" cy="90" r="76" stroke="#D8B878" stroke-width="4"/>
  <path d="M90 36L94.8 49.2L108 54L94.8 58.8L90 72L85.2 58.8L72 54L85.2 49.2L90 36Z" fill="#D8B878"/>
  <path d="M71 128C61 127 52 120 52 108C52 94 65 91 70 101C75 112 62 119 62 119C62 119 73 130 87 130H93C107 130 118 119 118 119C118 119 105 112 110 101C115 91 128 94 128 108C128 120 119 127 109 128" stroke="#D8B878" stroke-width="4" stroke-linecap="round" stroke-linejoin="round"/>
  <path d="M68 118C71 105 74 88 74 70C74 59 81 56 90 70C99 56 106 59 106 70C106 88 109 105 112 118" stroke="#D8B878" stroke-width="4" stroke-linecap="round" stroke-linejoin="round"/>
  <path d="M74 70L67 54C66 51 70 49 72 52L80 62" stroke="#D8B878" stroke-width="4" stroke-linecap="round" stroke-linejoin="round"/>
  <path d="M106 70L113 54C114 51 110 49 108 52L100 62" stroke="#D8B878" stroke-width="4" stroke-linecap="round" stroke-linejoin="round"/>
  <path d="M90 83V129" stroke="#D8B878" stroke-width="4" stroke-linecap="round"/>
</svg>
